<?xml version="1.0" encoding="UTF-8"?>
<svg width="80px" height="48px" viewBox="0 0 80 48" version="1.1" xmlns="http://www.w3.org/2000/svg" xmlns:xlink="http://www.w3.org/1999/xlink">
    <title>logo-title</title>
    <g id="logo-title" stroke="none" stroke-width="1" fill="none" fill-rule="evenodd">
        <g id="logo">
            <path d="M76.1904762,36.5142205 C76.1891205,35.3033426 75.3660006,34.3174025 74.3307684,34.2864458 C73.2622788,34.2545981 72.3782516,35.2668181 72.3809524,36.5197882 C72.3836656,37.794584 73.236369,38.7584758 74.335989,38.7295234 C75.3882367,38.7016846 76.1920208,37.7418016 76.1904762,36.5142205 M24.1031977,36.2372771 C24.3170406,36.1000529 24.4467734,36.039399 24.5490461,35.9482031 C29.9050651,31.1694487 35.0636739,26.1951823 39.2343674,20.3304647 C40.571264,18.4504083 41.7792927,16.423234 42.688071,14.3113162 C44.6792533,9.68398156 42.9648343,6.88336222 37.9554182,6.12561843 C36.5767909,5.91720124 35.487684,6.20842608 34.4829034,7.25137233 C33.2493606,8.53177222 31.9256535,9.75775565 30.4936196,10.8095204 C28.8730406,11.9995846 27.8710709,11.7079296 27.2189473,9.79754634 C26.65115,8.13365023 26.3417373,6.36070613 26.1162184,4.61077609 C25.9559984,3.36823113 26.6105004,2.72835382 27.870206,2.46810119 C28.2903241,2.38120693 28.7208208,2.32571505 29.1493715,2.29839928 C31.3239095,2.15945449 33.5012585,1.90802034 35.6736343,1.94329425 C37.5208133,1.97319104 39.439129,2.08482006 41.1922517,2.60489513 C46.3422117,4.13264256 48.7251872,8.75072856 47.2847206,13.9979376 C46.5093508,16.8224314 45.0887766,19.3378483 43.4409537,21.7300216 C39.3764249,27.6306583 34.3572788,32.68171 29.1074245,37.5236993 C28.4228677,38.1551883 27.7538789,38.8116272 27.0120235,39.3708477 C26.3503862,39.8694143 26.4245501,40.3490534 26.8409924,40.91107 C27.8286915,42.2428752 29.2974831,42.5781924 30.818384,42.7309026 C32.9628673,42.9459874 35.0522142,42.5790527 36.7430651,41.2511191 C39.1846365,39.333638 41.5191784,37.2720501 43.800746,35.1663698 C45.2178607,33.858439 46.3945373,32.2958479 47.7811648,30.9513527 C51.167191,27.6682981 55.1739888,25.712747 59.9836164,25.5873526 C64.2773398,25.4755085 68.0162393,26.9417416 71.2677759,29.6348186 C72.0634705,30.2938384 72.7599194,30.5826973 73.8137822,30.5186021 C76.9120179,30.3297576 79.567216,32.5627681 79.9464683,35.5109356 C80.3458291,38.6165452 78.4778929,41.4259831 75.4395505,42.1290953 C73.2040381,42.6465894 71.2137206,42.0654302 69.669684,40.3509892 C68.0713758,38.5758942 67.6869342,36.4844095 68.5490087,34.2754885 C68.861881,33.4736523 68.6551734,33.0531615 68.1217553,32.5281395 C64.8081632,29.2668085 59.7857738,29.0056955 55.3389657,30.8020838 C52.9246381,31.7774935 51.0796214,33.5203257 49.316985,35.3868317 C47.0819049,37.7531948 44.8332029,40.1193428 42.4335785,42.3162191 C40.2328776,44.3311336 37.7383319,45.9810492 34.7322066,46.6342618 C31.9600327,47.2364993 29.2343465,47.0964791 26.6133113,45.9382473 C24.3760691,44.9497175 22.9472784,43.2838857 22.2949386,40.9142963 C22.1401241,40.3514193 21.7191412,39.7870368 21.271563,39.3884846 C15.6671057,34.3998075 10.3197356,29.171741 5.86125151,23.1175337 C3.77709396,20.2874477 1.92364459,17.3227187 1.0109743,13.8779203 C-0.463655277,8.3110952 2.4970636,3.51212287 8.16552238,2.26721198 C10.8105581,1.68648299 13.4462963,1.8873722 16.0885211,2.2852791 C16.646156,2.36916218 17.2226021,2.32808098 17.7899669,2.35281573 C18.7184213,2.39346676 19.6602815,2.35905319 20.5716545,2.50681646 C21.5952463,2.67286194 22.2322344,3.3105884 22.2382886,4.42042603 C22.2493159,6.48610057 21.843036,8.46531101 20.8912296,10.3053616 C20.2155379,11.6120018 19.3993024,11.8905366 18.1776518,11.0280466 C16.8137275,10.0651118 15.5503462,8.94215404 14.3431824,7.78585809 C13.291698,6.77840083 12.369514,5.78578442 10.6652573,6.0735679 C8.54974771,6.43103886 6.57305217,6.92939037 5.35767199,8.89354487 C4.64630377,10.0436034 4.58165359,11.3659448 5.05150257,12.5129921 C5.97844347,14.7754692 6.9339256,17.0779521 8.26217332,19.1167411 C11.8581505,24.6353872 16.5237747,29.2560542 21.3273481,33.7336898 C22.23764,34.5824145 23.1756081,35.4021027 24.1031977,36.2372771" id="stethoscope" fill="#2DBECD"></path>
            <path d="M37.3932446,0.0964128682 C42.1203152,0.491747729 47.5866615,4.19795943 48.2539683,11.2998829 L48.2539683,13.6636822 C47.6340903,20.4612104 41.640364,28.8455513 24.1266302,39.3650794 C6.61195247,28.8455513 0.619877918,20.4612104 0,13.6636822 L0,11.2998829 C0.665419006,4.19795943 6.13176535,0.491747729 10.8588359,0.0964128682 C11.635866,0.0315762669 12.3623997,0 13.0443362,0 C18.5061992,0 21.1268175,2.02151261 24.1266302,5.08251592 C27.1262069,2.02151261 29.7451734,0 35.2079803,0 C35.8896808,0 36.6164505,0.0315762669 37.3932446,0.0964128682 Z" id="heart" fill="#2DBECD"></path>
            <path d="M20.3174603,27.3015873 C20.3411124,29.4094943 22.0371444,31.1111111 24.1269403,31.1111111 C26.2168238,31.1111111 27.9128558,29.4094943 27.9365079,27.3015873 L20.3174603,27.3015873 Z" id="mouth" fill="#FFFFFF"></path>
            <rect id="Rectangle" fill="#FFFFFF" x="5.07936508" y="8.88888889" width="38.0952381" height="15.2380952" rx="7.61904762"></rect>
            <g id="eyes" transform="translate(10.158730, 12.698413)" fill="#2DBECD">
                <circle id="Oval" cx="3.80952381" cy="3.80952381" r="3.80952381"></circle>
                <circle id="Oval" cx="24.1269841" cy="3.80952381" r="3.80952381"></circle>
            </g>
        </g>
    </g>
</svg>