<?xml version="1.0" encoding="UTF-8"?>
<svg width="40px" height="40px" viewBox="0 0 40 40" version="1.1" xmlns="http://www.w3.org/2000/svg" xmlns:xlink="http://www.w3.org/1999/xlink">
    <title>logo-chat</title>
    <g id="logo-chat" stroke="none" stroke-width="1" fill="none" fill-rule="evenodd">
        <g id="logo" transform="translate(0.000000, 3.000000)">
            <path d="M20.0400377,29.3454719 C24.412298,25.4444479 28.6234073,21.3838222 32.028055,16.5962977 C33.1193992,15.0615578 34.105545,13.4067216 34.8474049,11.6827071 C36.4728599,7.90529107 35.0733341,5.6190712 30.9840148,5.00050484 C29.8586048,4.83036836 28.9695379,5.06810292 28.1493089,5.91948762 C27.1423352,6.96471202 26.061758,7.96551482 24.8927507,8.82409827 C23.569829,9.7955793 22.7518946,9.55749359 22.2195488,7.99799701 C21.7560409,6.63971448 21.503459,5.19241316 21.319362,3.76389885 C21.1885701,2.74957644 21.7228575,2.22722761 22.7511886,2.01477648 C23.0941421,1.94384239 23.445568,1.8985429 23.7954053,1.87624431 C25.5705384,1.76281999 27.3479661,1.55756763 29.1213341,1.58636265 C30.6292353,1.6107682 32.1952074,1.70189393 33.6263279,2.12644501 C37.8303769,3.37358576 39.775663,7.14345189 38.5997719,11.4268879 C37.966817,13.7325971 36.8071645,15.7859986 35.462003,17.7387931 C32.1440203,22.5556394 28.0467582,26.678947 23.7611629,30.6315913 C23.202341,31.1470925 22.6562277,31.682961 22.0506314,32.1394675 C21.5105193,32.5464606 19.5918367,33.877551 19.5918367,33.877551 C19.5918367,33.877551 17.7299112,32.4792137 17.3645412,32.153865 C12.7894741,28.0814755 8.42427399,23.8136661 4.78469511,18.8714561 C3.08334201,16.5611818 1.57032212,14.1409948 0.825285139,11.3289145 C-0.378494104,6.78456751 2.03841926,2.86703908 6.66573255,1.85078529 C8.82494538,1.37672081 10.9765684,1.540712 13.1334866,1.86553396 C13.5886988,1.93400994 14.059267,1.90047427 14.5224219,1.92066591 C15.280344,1.95385042 16.0492094,1.92575771 16.7931873,2.04638078 C17.6287725,2.18192811 18.1487628,2.70252115 18.153705,3.60851105 C18.1627069,5.29477598 17.8310498,6.91045797 17.054065,8.41254007 C16.5024799,9.47918516 15.8361652,9.70656053 14.8388994,9.00248698 C13.7254918,8.21641783 12.6941602,7.29971759 11.7087203,6.35580252 C10.8503657,5.53338843 10.0975624,4.72308932 8.70633253,4.95801461 C6.97938588,5.24982764 5.36575688,5.6566452 4.37360979,7.26003663 C3.79290104,8.19885989 3.74012538,9.27832228 4.12367557,10.2146874 C4.88036202,12.0616075 5.66034743,13.9411854 6.74463128,15.6055029 C9.68012286,20.1105202 13.4887957,23.8824932 17.4100801,27.537706 C18.1531755,28.2305425 18.9188638,28.8996757 19.6760798,29.5814507 C19.8506454,29.469431 19.9565497,29.4199176 20.0400377,29.3454719 Z" id="stethoscope" fill="#2DBECD"></path>
            <path d="M30.5250977,0.0787043822 C34.3839308,0.401426718 38.8462543,3.42690565 39.3909945,9.22439417 L39.3909945,11.1540263 C38.8849717,16.7030289 33.9921339,23.5473888 19.6952083,32.1347587 C5.39751222,23.5473888 0.50602279,16.7030289 0,11.1540263 L0,9.22439417 C0.543199189,3.42690565 5.00552274,0.401426718 8.86435584,0.0787043822 C9.4986661,0.0257765444 10.0917549,0 10.6484377,0 C15.1071014,0 17.2463816,1.65021437 19.6952083,4.14899258 C22.1438424,1.65021437 24.2817742,0 28.7412084,0 C29.2976986,0 29.89098,0.0257765444 30.5250977,0.0787043822 Z" id="heart" fill="#2DBECD"></path>
            <path d="M16.5856819,22.28701 C16.6049897,24.0077504 17.9895056,25.3968254 19.6954615,25.3968254 C21.4014889,25.3968254 22.7860048,24.0077504 22.8053126,22.28701 L16.5856819,22.28701 Z" id="mouth" fill="#FFFFFF"></path>
            <rect id="Rectangle" fill="#FFFFFF" x="4.14642047" y="7.25623583" width="31.0981535" height="12.4392614" rx="6.21963071"></rect>
            <g id="eyes" transform="translate(8.292841, 10.366051)" fill="#2DBECD">
                <circle id="Oval" cx="3.10981535" cy="3.10981535" r="3.10981535"></circle>
                <circle id="Oval" cx="19.6954972" cy="3.10981535" r="3.10981535"></circle>
            </g>
        </g>
    </g>
</svg>